<svg id="Layer_1" data-name="Layer 1" xmlns="http://www.w3.org/2000/svg" xmlns:xlink="http://www.w3.org/1999/xlink" viewBox="0 0 684.4 547.95" width="406" height="306" class="illustration styles_illustrationTablet__1DWOa"><defs><linearGradient id="linear-gradient" x1="292.92" y1="276.24" x2="240.07" y2="293.86" gradientUnits="userSpaceOnUse"><stop offset="0.12" stop-color="#010101" stop-opacity="0"></stop><stop offset="0.95" stop-color="#010101"></stop></linearGradient><linearGradient id="linear-gradient-2" x1="287.34" y1="400.56" x2="495.87" y2="386.18" xlink:href="#linear-gradient"></linearGradient><linearGradient id="linear-gradient-3" x1="183.09" y1="409.92" x2="266.04" y2="409.92" xlink:href="#linear-gradient"></linearGradient><linearGradient id="linear-gradient-4" x1="222.27" y1="408.93" x2="313.29" y2="408.93" xlink:href="#linear-gradient"></linearGradient><linearGradient id="linear-gradient-5" x1="403.88" y1="258.72" x2="376.02" y2="251.88" xlink:href="#linear-gradient"></linearGradient><linearGradient id="linear-gradient-6" x1="361.99" y1="229.23" x2="441.45" y2="177.1" xlink:href="#linear-gradient"></linearGradient><linearGradient id="linear-gradient-7" x1="376.44" y1="270.31" x2="237.84" y2="262.22" xlink:href="#linear-gradient"></linearGradient><linearGradient id="linear-gradient-8" x1="387.59" y1="220.83" x2="408.37" y2="220.83" gradientUnits="userSpaceOnUse"><stop offset="0" stop-color="#e5c6d6"></stop><stop offset="0.42" stop-color="#ead4d0"></stop><stop offset="1" stop-color="#f0e9cb"></stop></linearGradient><linearGradient id="linear-gradient-9" x1="402.08" y1="197.44" x2="361.9" y2="195.42" xlink:href="#linear-gradient"></linearGradient><linearGradient id="linear-gradient-10" x1="366.75" y1="177.16" x2="404.38" y2="177.16" xlink:href="#linear-gradient-8"></linearGradient><linearGradient id="linear-gradient-11" x1="385.61" y1="187.42" x2="365.8" y2="215.6" xlink:href="#linear-gradient"></linearGradient><linearGradient id="linear-gradient-12" x1="481.58" y1="142.26" x2="493.74" y2="142.26" gradientTransform="translate(-135.03 30.41) rotate(-7.39)" xlink:href="#linear-gradient-8"></linearGradient><linearGradient id="linear-gradient-13" x1="485.21" y1="143.97" x2="498.17" y2="124.57" gradientTransform="translate(-135.03 30.41) rotate(-7.39)" xlink:href="#linear-gradient"></linearGradient><linearGradient id="linear-gradient-14" x1="217.82" y1="208.72" x2="279.85" y2="258.88" xlink:href="#linear-gradient"></linearGradient><linearGradient id="linear-gradient-15" x1="192.98" y1="238.11" x2="253.62" y2="238.11" xlink:href="#linear-gradient"></linearGradient><linearGradient id="linear-gradient-16" x1="247.91" y1="200.3" x2="281.72" y2="200.3" xlink:href="#linear-gradient-8"></linearGradient><linearGradient id="linear-gradient-17" x1="250.87" y1="300.54" x2="163.41" y2="296.98" xlink:href="#linear-gradient"></linearGradient><linearGradient id="linear-gradient-18" x1="483.91" y1="125.49" x2="508.35" y2="125.49" gradientTransform="translate(-135.03 30.41) rotate(-7.39)" xlink:href="#linear-gradient-8"></linearGradient><linearGradient id="linear-gradient-19" x1="356.59" y1="83.52" x2="385.97" y2="83.52" xlink:href="#linear-gradient"></linearGradient><linearGradient id="linear-gradient-20" x1="336.36" y1="82.88" x2="357.33" y2="82.88" xlink:href="#linear-gradient"></linearGradient><linearGradient id="linear-gradient-21" x1="341.13" y1="65.83" x2="365.4" y2="65.83" xlink:href="#linear-gradient"></linearGradient><linearGradient id="linear-gradient-22" x1="578.36" y1="162.51" x2="602.42" y2="162.51" gradientTransform="translate(-275.97 79.48) rotate(-15.49)" xlink:href="#linear-gradient-8"></linearGradient><linearGradient id="linear-gradient-23" x1="328.7" y1="138.84" x2="467.57" y2="205.17" xlink:href="#linear-gradient"></linearGradient><linearGradient id="linear-gradient-24" x1="506.14" y1="178.14" x2="543.91" y2="178.14" gradientTransform="translate(-172.93 42.29) rotate(-9.5)" xlink:href="#linear-gradient-8"></linearGradient><linearGradient id="linear-gradient-25" x1="468.96" y1="247.56" x2="542.26" y2="247.56" gradientTransform="translate(-135.03 30.41) rotate(-7.39)" xlink:href="#linear-gradient-8"></linearGradient><linearGradient id="linear-gradient-26" x1="392.67" y1="233.81" x2="408.54" y2="233.81" xlink:href="#linear-gradient-8"></linearGradient><linearGradient id="linear-gradient-27" x1="305.13" y1="340.07" x2="322.61" y2="340.07" xlink:href="#linear-gradient-8"></linearGradient><linearGradient id="linear-gradient-28" x1="307.79" y1="337.18" x2="322.33" y2="337.18" xlink:href="#linear-gradient-8"></linearGradient><linearGradient id="linear-gradient-29" x1="201.54" y1="347.46" x2="216.68" y2="347.46" xlink:href="#linear-gradient-8"></linearGradient><linearGradient id="linear-gradient-30" x1="370.7" y1="170.21" x2="375.87" y2="168.19" xlink:href="#linear-gradient"></linearGradient><linearGradient id="linear-gradient-31" x1="350.05" y1="191.82" x2="371.43" y2="191.82" xlink:href="#linear-gradient"></linearGradient></defs><title>family 1</title><path d="M682.41,419.07c-4.79,20.34-17.93,37-33.82,50.91a233.53,233.53,0,0,1-25.75,19.57c-16.24,11-33.33,21.07-52.06,26.67-52.25,15.55-110.67-5.56-162,12.6-19.89,7-37.24,19.5-55.78,29.46-41.91,22.6-90.72,30.91-137.91,26.16-64.36-6.51-124.54-41.56-164.77-90.56C-4.54,427.15-22.35,334.56,36.68,253c31.45-43.37,79.61-71.37,116.54-110.18,16-16.74,29.84-35.51,47.54-50.41,20.76-17.47,46-28.81,71.56-37.93,51.22-18.19,111.59-27,157.26,2.42,59.57,38.46,67.65,122.77,112.81,177.44,25.94,31.37,62.83,51.41,93.36,78.34S691.8,379.45,682.41,419.07Z" transform="translate(0.01 -37.78)" fill="#07a193" opacity="0.24" style="isolation: isolate;"></path><path d="M648.59,470a233.53,233.53,0,0,1-25.75,19.57c-16.24,11-33.33,21.07-52.06,26.67-52.25,15.55-110.67-5.56-162,12.6-19.89,7-37.24,19.5-55.78,29.46-41.91,22.6-90.72,30.91-137.91,26.16-64.36-6.51-124.54-41.56-164.77-90.56,27.32-12.72,71.26-15.55,88.73-17.66,94.66-11.53,190,18.31,285.2,12.38C499.41,483.92,574.57,457,648.59,470Z" transform="translate(0.01 -37.78)" fill="#07a193" opacity="0.24" style="isolation: isolate;"></path><path d="M160.16,534.42c-6.74.36-13.74.41-19.94-2.26a5.12,5.12,0,0,1-2.78-2.18c-1.64-3.31,3.36-5.8,7-6.15l52.34-5.06c9.46-.92,20.09-2.46,25.71-10.14,3.21-4.38,5-10.84,10.33-12,3.28-.7,7.31.93,9.71-1.41,1.33-1.28,1.56-3.29,2.4-4.93,2.21-4.28,7.89-5.1,12.71-5.24,34.05-1,67.78,5.81,101.7,8.81a459.46,459.46,0,0,0,87.05-.6c-5.13,9.51-17.23,12.49-28,13.56-24.74,2.47-50,.08-74.32,5a16.75,16.75,0,0,0,4.7,7.88c-7.72,3-16.15,3.33-24.41,3.67L238.65,527c-12.4.5-25.46-.41-37.53,2A294.19,294.19,0,0,1,160.16,534.42Z" transform="translate(0.01 -37.78)" fill="#07a193" opacity="0.55" style="isolation: isolate;"></path><path d="M280.3,242.54c-.36,44.23,22.61,56.44,29.84,79.28.89,2.81-1.6,3.75-2.41,6.58s-4.13,5.13-6.75,3.78c-1.37-.7-2.16-2.15-2.9-3.51-9.21-16.94-20.35-14.57-25.69-33.1-1.15-4-3.61-25.77-3.24-29.89a38.15,38.15,0,0,1,3.68-12c.71-1.57-8.14-26.52-6.82-27.64s13.39,7.86,14.29,16.49" transform="translate(0.01 -37.78)" fill="#07a193"></path><path d="M280.48,242.18c-.36,44.23,22.61,56.44,29.84,79.28.89,2.81-1.6,3.75-2.41,6.58s-4.13,5.13-6.75,3.78c-1.37-.7-2.16-2.15-2.9-3.5-9.21-16.95-20.35-14.58-25.69-33.1-1.15-4-3.62-25.78-3.24-29.9a38.15,38.15,0,0,1,3.68-12c.71-1.57-8.14-26.52-6.82-27.64s13.39,7.86,14.29,16.49" transform="translate(0.01 -37.78)" fill="url(#linear-gradient)"></path><path d="M402.2,359.8c2.42,7.05,5,14.06,7.09,21.2,8.65,29.14,10.15,59.86,11.61,90.22.13,2.88.07,6.24-2.2,8-2.46,1.94-12,2.14-14-.3s-2.53-5.71-3-8.81c-1.26-8.75-6.72-28.93-8.54-37.57-6.29-29.9-12.28-46.67-28.19-72.76-7,11.84-9.47,31.49-15.05,44.05-2.8,6.29-5.63,12.95-11,17.21-3.39,2.68-11.53,9.72-15.47,11.5-18.1,8.18-27.9,15.1-44.85,25.46a7.25,7.25,0,0,1-2.61,1.14c-3.39.54-10.33-9.44-9.28-12.71s4.09-5.4,6.93-7.34a357.46,357.46,0,0,0,43.47-35c3.35-3.16,6.69-6.45,8.88-10.5,3-5.6,3.59-12.14,4.11-18.47q1.55-19.15,3.1-38.29c.67-8.23,1.63-17.14,7.27-23.17,4.37-4.66,11-6.77,17.36-6.66s12.57,2.2,18.34,4.93c2.37,1.12,4.29,1.85,6.92,1.51,1.79-.23,2.8-2.12,4.63-1,2.35,1.49,3.77,13.09,4.6,15.95Q396.85,344.24,402.2,359.8Z" transform="translate(0.01 -37.78)" fill="#606161"></path><path d="M402.2,359.8c2.42,7.05,5,14.06,7.09,21.2,8.65,29.14,10.15,59.86,11.61,90.22.13,2.88.07,6.24-2.2,8-2.46,1.94-12,2.14-14-.3s-2.53-5.71-3-8.81c-1.26-8.75-6.72-28.93-8.54-37.57-6.29-29.9-12.28-46.67-28.19-72.76-7,11.84-9.47,31.49-15.05,44.05-2.8,6.29-5.63,12.95-11,17.21-3.39,2.68-11.53,9.72-15.47,11.5-18.1,8.18-27.9,15.1-44.85,25.46a7.25,7.25,0,0,1-2.61,1.14c-3.39.54-10.33-9.44-9.28-12.71s4.09-5.4,6.93-7.34a357.46,357.46,0,0,0,43.47-35c3.35-3.16,6.69-6.45,8.88-10.5,3-5.6,3.59-12.14,4.11-18.47q1.55-19.15,3.1-38.29c.67-8.23,1.63-17.14,7.27-23.17,4.37-4.66,11-6.77,17.36-6.66s12.57,2.2,18.34,4.93c2.37,1.12,4.29,1.85,6.92,1.51,1.79-.23,2.8-2.12,4.63-1,2.35,1.49,3.77,13.09,4.6,15.95Q396.85,344.24,402.2,359.8Z" transform="translate(0.01 -37.78)" fill="url(#linear-gradient-2)"></path><path d="M251.43,404.79A163.42,163.42,0,0,1,246,423c-5.27,13.73-14.14,25.73-22.9,37.54l-24,32.34c-1,1.38-2.24,2.88-4,3.1a6,6,0,0,1-3.31-.82c-2.91-1.4-5.79-3.23-7.39-6-2.11-3.69-1.58-8.41.22-12.25s4.71-7,7.44-10.3c7.74-9.25,14.25-19.46,20.74-29.64,3.09-4.84,6.22-9.77,7.86-15.29,1.83-6.15,1.71-12.68,1.79-19.09A290.79,290.79,0,0,1,228.16,349c2.17-10.82,6.7-24.36,19.73-25.16,7.93-.48,14.86,3.86,17.15,11.43,2.83,9.37-1,20.06-3.34,29.09Q256.57,384.58,251.43,404.79Z" transform="translate(0.01 -37.78)" fill="#606161"></path><path d="M251.43,404.79A163.42,163.42,0,0,1,246,423c-5.27,13.73-14.14,25.73-22.9,37.54l-24,32.34c-1,1.38-2.24,2.88-4,3.1a6,6,0,0,1-3.31-.82c-2.91-1.4-5.79-3.23-7.39-6-2.11-3.69-1.58-8.41.22-12.25s4.71-7,7.44-10.3c7.74-9.25,14.25-19.46,20.74-29.64,3.09-4.84,6.22-9.77,7.86-15.29,1.83-6.15,1.71-12.68,1.79-19.09A290.79,290.79,0,0,1,228.16,349c2.17-10.82,6.7-24.36,19.73-25.16,7.93-.48,14.86,3.86,17.15,11.43,2.83,9.37-1,20.06-3.34,29.09Q256.57,384.58,251.43,404.79Z" transform="translate(0.01 -37.78)" fill="url(#linear-gradient-3)"></path><path d="M292.9,413.62c3,9,5.78,18,8.57,27l10.18,33c1.08,3.49,2.17,7.18,1.35,10.74s-4.3,6.78-7.85,5.94c-2.74-.64-4.45-3.3-5.84-5.75-16-28.4-26.72-60-46.38-86-7.25-9.59-15.65-18.34-22-28.58s-10.45-22.52-8-34.28c.6-2.86,1.78-5.88,4.32-7.32,1.85-1.05,4.09-1.07,6.22-1.07,22,.08,28.71,6.45,37.16,24.93C279.43,371.38,286.24,393.73,292.9,413.62Z" transform="translate(0.01 -37.78)" fill="#606161"></path><path d="M292.9,413.62c3,9,5.78,18,8.57,27l10.18,33c1.08,3.49,2.17,7.18,1.35,10.74s-4.3,6.78-7.85,5.94c-2.74-.64-4.45-3.3-5.84-5.75-16-28.4-26.72-60-46.38-86-7.25-9.59-15.65-18.34-22-28.58s-10.45-22.52-8-34.28c.6-2.86,1.78-5.88,4.32-7.32,1.85-1.05,4.09-1.07,6.22-1.07,22,.08,28.71,6.45,37.16,24.93C279.43,371.38,286.24,393.73,292.9,413.62Z" transform="translate(0.01 -37.78)" fill="url(#linear-gradient-4)"></path><path d="M302,489.76l.54,18.55c.11,3.5.46,7.51,3.28,9.59a11.74,11.74,0,0,0,5.5,1.71c9.9,1.33,20,2.66,29.82,1a16,16,0,0,0,7.15-2.62,2.22,2.22,0,0,0,.72-.8,2.13,2.13,0,0,0,.09-1.15c-.49-3.6-3.49-6.28-6.47-8.37a64.36,64.36,0,0,0-11.37-6.37,55.22,55.22,0,0,1-7.74-3.64c-5.65-3.59-9-9.78-13.6-14.67a4.65,4.65,0,0,0-1.52-1.2c-1.77-.72-4.12.94-5.2,2.3C302,485.65,301.93,487.88,302,489.76Z" transform="translate(0.01 -37.78)" fill="#606161"></path><path d="M169.38,503.3c-.78,1.12-1.57,2.39-1.36,3.73a4.55,4.55,0,0,0,1.29,2.28c2.38,2.59,5.72,4.05,8.82,5.71,5.91,3.17,11.33,7.35,17.66,9.54s14.17,1.93,18.79-2.93a2.94,2.94,0,0,0,.89-1.51c.16-1.08-.75-2-1.63-2.68a26.81,26.81,0,0,0-6.79-3.8c-1.73-.66-3.58-1.17-5-2.4a10.8,10.8,0,0,1-2.35-3.48,48.85,48.85,0,0,1-4.12-13.19c-.45-2.82-.69-5.79-2.17-8.23-4-6.53-8-1.29-11.39,2A100.85,100.85,0,0,0,169.38,503.3Z" transform="translate(0.01 -37.78)" fill="#606161"></path><path d="M398.12,273.38c-.41,1.92-.92,4-2.5,5.18-2.3,1.69-5.59.52-7.91-1.13-7.12-5.07-10.62-13.71-13.56-21.94-2.47-6.9-4.82-14.07-4.34-21.39a3.7,3.7,0,0,1,.74-2.35,3.75,3.75,0,0,1,1.94-.93,30.06,30.06,0,0,1,28.5,8.5c4.2,4.45,2.66,7.7,1.47,13.41Q400.29,263.05,398.12,273.38Z" transform="translate(0.01 -37.78)" fill="#07a193"></path><path d="M398.12,273.38c-.41,1.92-.92,4-2.5,5.18-2.3,1.69-5.59.52-7.91-1.13-7.12-5.07-10.62-13.71-13.56-21.94-2.47-6.9-4.82-14.07-4.34-21.39a3.7,3.7,0,0,1,.74-2.35,3.75,3.75,0,0,1,1.94-.93,30.06,30.06,0,0,1,28.5,8.5c4.2,4.45,2.66,7.7,1.47,13.41Q400.29,263.05,398.12,273.38Z" transform="translate(0.01 -37.78)" fill="url(#linear-gradient-5)"></path><path d="M347.07,217.67c-2.48,23.17-7.39,55.31-11,78.34-.73,4.75-1.58,9.64-.44,14.31,1.64,6.74,11.5,3.19,17.91,5.85s13.52,3.1,20.46,3.05c4,0,8.23-.29,11.37-2.72,5-3.83,5.06-11.14,4.73-17.39-.65-12.46-1.17-25,.69-37.37,2.39-15.8,8.68-31.69,5.22-47.29a21,21,0,0,0-3.31-8,28.19,28.19,0,0,0-4.14-4.25l-7.91-7.07c-2.34-2.08-4.8-4.24-7.84-5-5.06-1.26-14,2.5-18.19,5.69C348.74,200.39,347.79,210.9,347.07,217.67Z" transform="translate(0.01 -37.78)" fill="#07a193"></path><path d="M361.33,202.29a20.42,20.42,0,0,1,4.35,2.8l15.08,11.63a5.79,5.79,0,0,1,1.57,1.55,5.62,5.62,0,0,1,.64,2.46c.44,5-.08,10,.4,15s2.12,10.15,6,13.35c2.45-2.16,2.5-5.89,2.35-9.15q-.63-13.41-1.56-26.81a4.71,4.71,0,0,0-3.26-5l-25.86-13a3.22,3.22,0,0,0-4.06.08c-2.11,1.31-7.23,3-4.13,5.1C354.29,201.21,359.6,202.29,361.33,202.29Z" transform="translate(0.01 -37.78)" fill="url(#linear-gradient-6)"></path><path d="M358.05,261.15C360.31,255.51,363.1,250,364,244a28.4,28.4,0,0,0-7.54-23.42,217,217,0,0,0-15.7,42.08,193.93,193.93,0,0,0-6.29,43.24,13.44,13.44,0,0,0,.91,6.4c1.39,2.81,4.58,4.38,7.7,4.67,6.76.64,8.4-.18,8.51-5.9s-.88-11.23-.62-16.91A102,102,0,0,1,358.05,261.15Z" transform="translate(0.01 -37.78)" fill="url(#linear-gradient-7)"></path><path d="M393.9,250.16c2.26,1.52,5.15,1.77,7.62,2.92,1.9.9,4.19,2.32,5.86,1s.83-4-.09-6c-6.85-14.72-5.56-31.76-8.33-47.76-.68-3.95-1.7-8-4.31-11.09-6.79-7.95-7,7.62-7.06,11.08,0,4.81.31,9.54.7,14.33C389,223.65,385.23,244.33,393.9,250.16Z" transform="translate(0.01 -37.78)" fill="url(#linear-gradient-8)"></path><path d="M395.15,195.86c-.24,1.28-.63,2.68,0,3.84a7.67,7.67,0,0,0,.79,1.08,6.33,6.33,0,0,1,1.21,2.77c-.16.28-.58.18-.86,0a20.82,20.82,0,0,1-5.93-4.58,6.29,6.29,0,0,0,1-3.12,10.4,10.4,0,0,1,.27-3.35c.43-1,2.07-2.59,3.22-1.83S395.34,194.82,395.15,195.86Z" transform="translate(0.01 -37.78)" fill="url(#linear-gradient-9)"></path><path d="M402.06,165.3a13.5,13.5,0,0,1,1.93,2.54c1.11,2.16-1.19,6.85-.54,9.27.39,1.48.76,7.46.92,9,.27,2.52-8.54,3.3-10.37,4.59-3.59,2.54-2,5.67-3.49,10.31-.5,1.51-.91,3.17-2,4.19-1.31,1.27-3.2,1.15-4.84.72-5.56-1.46-10.53-5.88-13.28-11.84a40.87,40.87,0,0,1-3.2-14.7c-.29-5-1.06-11.12.38-15.83,1.95-6.42,7.22-10.77,12.5-13.37,3.65-1.78,12.23-3.75,15.41.24,1.16,1.45,1.26,5.1,1.95,6.95A26.05,26.05,0,0,0,402.06,165.3Z" transform="translate(0.01 -37.78)" fill="url(#linear-gradient-10)"></path><path d="M389.19,194.8a3.65,3.65,0,0,1,1.32.81c.8.88.55,2.25.25,3.41a1.48,1.48,0,0,1-.46.86,1.35,1.35,0,0,1-1.18,0,19.3,19.3,0,0,1-5.93-3.36c-2.08-1.58-4.1-3.25-6-5a14.76,14.76,0,0,1-2.77-3.14c-.54-.91-1.72-4.08.39-3.46,1.34.38,3.28,3,4.44,3.91A47.94,47.94,0,0,0,389.19,194.8Z" transform="translate(0.01 -37.78)" fill="url(#linear-gradient-11)"></path><path d="M362.85,104.25a48.25,48.25,0,0,0-6.27-4.84,5.48,5.48,0,0,0-2.37-1,4.53,4.53,0,0,0-2.85.95c-4.12,2.8-5.72,8-7,12.79q-6.48,23.48-12.95,47c-.41,1.5-.81,3.17-.08,4.54a5.86,5.86,0,0,0,2.55,2.16,49.48,49.48,0,0,0,27.38,5.78,8.65,8.65,0,0,0,4.63-1.36c1.6-1.21,1.06-4.13,1.63-6.06,2.6-8.75,6.4-16.63,9-25.38,2-6.84,4-14.43,1-20.91-2.31-5-7.11-8.24-11.74-11.18l.38,3.72" transform="translate(0.01 -37.78)" fill="#07a193"></path><path d="M370.58,112.12c0,1,.16,1.94.14,2.92a3.73,3.73,0,0,1-1,2.67,3.2,3.2,0,0,1-2.21.78,5.48,5.48,0,0,1-3.92-1.88,10.15,10.15,0,0,1-2.09-3.91,17.65,17.65,0,0,1-.34-9,6.35,6.35,0,0,1,2.28-4c2-1.32,4.77-.49,6.4,1.22,1.17,1.23,3.1,4.34,2.85,6.14-.1.81-1,1.39-1.4,2.1A6.35,6.35,0,0,0,370.58,112.12Z" transform="translate(0.01 -37.78)" fill="url(#linear-gradient-12)"></path><path d="M366.42,110a5,5,0,0,0,1.56,1.28,2.19,2.19,0,0,0,1.95,0c.72-.39,1.05-1.23,1.5-1.91.83-1.27,2.27-2.32,2.27-3.84a3,3,0,0,0-1.11-2.17,7.7,7.7,0,0,0-2.2-1.2,35.8,35.8,0,0,0-5-1.56c-3.2-.74-3,.75-2.16,3.35A16.77,16.77,0,0,0,366.42,110Z" transform="translate(0.01 -37.78)" fill="url(#linear-gradient-13)"></path><path d="M262.57,156.27c-9-2.39-19.13,1.12-25.55,7.93-5.93,6.29-9.06,15.05-15.83,20.41-7.9,6.25-19.07,6.59-27.61,11.94-6.58,4.13-11.09,11-13.85,18.26-2.47,6.53-3.58,14.22,0,20.24,1.41,2.4,3.52,4.46,4.23,7.15,1,3.69-.92,7.44-1.88,11.14a23.63,23.63,0,0,0,6,22.24,6.3,6.3,0,0,0,3.09,1.93,6.16,6.16,0,0,0,3.75-.8c14.95-7.24,17.85-29.34,32.86-36.46,3.75-1.79,8-2.47,11.45-4.86,3.06-2.15,5.1-5.48,6.64-8.89,2.67-5.9,4.14-12.37,7.54-17.88a53.41,53.41,0,0,1,6.2-7.79c3.82-4.19,7.77-8.29,11.35-12.7,2.7-3.33,7.24-8.11,7.74-12.58C279.69,166.85,270.14,158.27,262.57,156.27Z" transform="translate(0.01 -37.78)" fill="#606161"></path><path d="M278.72,175.54c-.5,4.48-5.06,9.27-7.74,12.6-3.6,4.41-7.55,8.51-11.38,12.68a57.11,57.11,0,0,0-6,7.51,1.48,1.48,0,0,0-.19.27c-3.41,5.52-4.86,12-7.54,17.89-1.54,3.41-3.57,6.74-6.63,8.89-3.41,2.41-7.7,3.1-11.46,4.86-15,7.13-17.92,29.23-32.86,36.47a9.5,9.5,0,0,1-1.12.5,5.24,5.24,0,0,1-2.64.31,6.27,6.27,0,0,1-3.1-2,23.62,23.62,0,0,1-6-22.22c1-3.71,2.84-7.47,1.88-11.14-.73-2.69-2.83-4.75-4.25-7.17-3.53-6-2.41-13.67,0-20.23,2.76-7.27,7.28-14.13,13.86-18.27,8.51-5.32,19.7-5.67,27.59-11.91,6.78-5.37,9.92-14.14,15.86-20.42,6.39-6.82,16.47-10.31,25.55-7.93C270.14,158.26,279.67,166.84,278.72,175.54Z" transform="translate(0.01 -37.78)" fill="url(#linear-gradient-14)"></path><path d="M253.62,208.33a1.48,1.48,0,0,0-.19.27c-3.41,5.52-4.86,12-7.54,17.89-1.54,3.41-3.57,6.74-6.63,8.89-3.41,2.41-7.7,3.1-11.46,4.86-15,7.13-17.92,29.23-32.86,36.47a9.5,9.5,0,0,1-1.12.5,15.46,15.46,0,0,1-.72-7.24,47.24,47.24,0,0,1,23.56-36.24c3.64-2,7.58-3.6,10.65-6.4,4.79-4.37,6.62-11,9.31-16.89,3.37-7.55,11.76-18,16-5.9A28.07,28.07,0,0,1,253.62,208.33Z" transform="translate(0.01 -37.78)" fill="url(#linear-gradient-15)"></path><path d="M275,175.45c.74,2.29.81,5,2.51,6.65,1.45,1.43,4,2.14,4.19,4.16a6.1,6.1,0,0,1-.64,2.51c-1.33,3.74.79,11.24-1,14.76-1.37,2.63-10.79,6.15-12.41,8.63-3.17,4.87.36,16.14-1.88,16.18-3,.06-13.8,2.94-16.18,1.08-3.2-2.5-.76-13.9-.74-18a130.25,130.25,0,0,1,1.89-21.59c.87-5.08,2.14-10.31,5.41-14.3C260.05,170.76,272.36,167.27,275,175.45Z" transform="translate(0.01 -37.78)" fill="url(#linear-gradient-16)"></path><path d="M267,174.25c-.79,3.36.5,6.88.05,10.3-1,7.66-7.8,12.65-13.4,12.59-11.62-.1-18.49,20.42-21.3,24-9.71-16.72,0-29.63,2-36.49C235.9,179,247,167,251.89,163.8c4.5-3,11-5.09,16.49-4,3.86.75,4.88,8.07,2.9,9.14A8.34,8.34,0,0,0,267,174.25Z" transform="translate(0.01 -37.78)" fill="#606161"></path><path d="M283.89,283.26c-2.8,7.17-5.59,14.29-8.35,21.45-3.14,8-5.44,29.31-9.62,36.82-2.57,4.6-24.94,6.66-35.74,1.26a11.64,11.64,0,0,1-4.1-3.06,24.25,24.25,0,0,1-5.67-15.82c.15-9,3.18-17.7,5.13-26.47a138.65,138.65,0,0,0,3.11-32.07v-2.18c-.08-7-.19-14.14,2.56-20.54,5.94-13.63,25.71-26.16,39-14.17C274.62,232.43,285.46,279.24,283.89,283.26Z" transform="translate(0.01 -37.78)" fill="#07a193"></path><path d="M240.14,267.4c-1.15,6.25-.65,12.64-1.38,18.93-1.26,11.11-6,21.6-7.2,32.71a56.2,56.2,0,0,0,.65,15.86c.38,2.15.8,4.52-.34,6.4a4.59,4.59,0,0,1-1.69,1.49,11.64,11.64,0,0,1-4.1-3.06,24.25,24.25,0,0,1-5.67-15.82c.15-9,3.18-17.7,5.13-26.47a138.65,138.65,0,0,0,3.11-32.07v-2.18a23.45,23.45,0,0,1,2-2.38c1.72-1.87,3.91-3.64,6.47-3.83C244.89,256.29,240.83,263.69,240.14,267.4Z" transform="translate(0.01 -37.78)" fill="url(#linear-gradient-17)"></path><path d="M377.74,106.63a13.33,13.33,0,0,0,6-7.55A28.44,28.44,0,0,0,385,89.32a28.34,28.34,0,0,0-1.61-9.77,9.57,9.57,0,0,0-3-4.34c-2.4-1.76-5.79-1.64-8.49-.39a20.92,20.92,0,0,0-6.76,5.71,16.91,16.91,0,0,0-3.22,4.94,15.26,15.26,0,0,0-.78,5.42c0,5,1.08,10.33,5,13.74C369.38,107.48,373.7,108.8,377.74,106.63Z" transform="translate(0.01 -37.78)" fill="url(#linear-gradient-18)"></path><path d="M384.28,71.16a7.65,7.65,0,0,1,1.55,6.27,3.26,3.26,0,0,1-.68,1.54c-.84.93-2.28.89-3.5,1.21-1.51.39-2.77,1.41-4.19,2s-3.28.82-4.39-.28a3,3,0,0,1-1.86,2.34,12.18,12.18,0,0,0-2.75,1.5c-1.31,1.2-1.5,3.16-1.6,4.94-.64-.76-1.89-1.51-2.46-.7a1.43,1.43,0,0,0-.2.91c0,1.48.43,2.93.59,4.41a5.82,5.82,0,0,1-.9,4.23,2.83,2.83,0,0,1-3.92.63,4.33,4.33,0,0,1-1-1.71c-2.26-6.14-3.31-13-1.48-19.25s7-11.86,13.44-12.85c2.69-.42,4.7.42,7.12,1.43C380.33,68.77,382.65,69.17,384.28,71.16Z" transform="translate(0.01 -37.78)" fill="#606161"></path><path d="M384.28,71.16a7.65,7.65,0,0,1,1.55,6.27,3.26,3.26,0,0,1-.68,1.54c-.84.93-2.28.89-3.5,1.21-1.51.39-2.77,1.41-4.19,2s-3.28.82-4.39-.28a3,3,0,0,1-1.86,2.34,12.18,12.18,0,0,0-2.75,1.5c-1.31,1.2-1.5,3.16-1.6,4.94-.64-.76-1.89-1.51-2.46-.7a1.43,1.43,0,0,0-.2.91c0,1.48.43,2.93.59,4.41a5.82,5.82,0,0,1-.9,4.23,2.83,2.83,0,0,1-3.92.63,4.33,4.33,0,0,1-1-1.71c-2.26-6.14-3.31-13-1.48-19.25s7-11.86,13.44-12.85c2.69-.42,4.7.42,7.12,1.43C380.33,68.77,382.65,69.17,384.28,71.16Z" transform="translate(0.01 -37.78)" fill="url(#linear-gradient-19)"></path><path d="M349.12,73.55c-3,1.27-5,4.07-6.41,7s-2.2,6.09-3.56,9a6.07,6.07,0,0,1-2.79,3.27c1.94-1,4.24-1,6.33-1.62,5.34-1.6,9.24-7.1,12.49-11.32,1.13-1.47,3.14-4,1.57-5.79C354.84,72,351.37,73.26,349.12,73.55Z" transform="translate(0.01 -37.78)" fill="#606161"></path><path d="M348.36,67.17a40.09,40.09,0,0,1-7.23,3.08c6.47,1.17,13.36,1.55,19.43-1a8.29,8.29,0,0,0,4.34-3.42c.68-1.28.75-3.52-.36-4.63s-3.15-.59-4.61-.16C355.7,62.29,352.17,65.08,348.36,67.17Z" transform="translate(0.01 -37.78)" fill="#606161"></path><path d="M349.12,73.55c-3,1.27-5,4.07-6.41,7s-2.2,6.09-3.56,9a6.07,6.07,0,0,1-2.79,3.27c1.94-1,4.24-1,6.33-1.62,5.34-1.6,9.24-7.1,12.49-11.32,1.13-1.47,3.14-4,1.57-5.79C354.84,72,351.37,73.26,349.12,73.55Z" transform="translate(0.01 -37.78)" fill="url(#linear-gradient-20)"></path><path d="M348.36,67.17a40.09,40.09,0,0,1-7.23,3.08c6.47,1.17,13.36,1.55,19.43-1a8.29,8.29,0,0,0,4.34-3.42c.68-1.28.75-3.52-.36-4.63s-3.15-.59-4.61-.16C355.7,62.29,352.17,65.08,348.36,67.17Z" transform="translate(0.01 -37.78)" fill="url(#linear-gradient-21)"></path><path d="M355.9,75.28a2.12,2.12,0,0,0-2.16,1.32,2.15,2.15,0,0,0,.44,1.88,6.33,6.33,0,0,0,1.5,1.32,1,1,0,0,0,.57.25.94.94,0,0,0,.56-.26c.7-.55,1.9-2,1.73-2.94S356.77,75.33,355.9,75.28Z" transform="translate(0.01 -37.78)" fill="#07a193"></path><path d="M363.82,65a2.12,2.12,0,0,0-2.16,1.31,2.18,2.18,0,0,0,.44,1.89,6.56,6.56,0,0,0,1.5,1.32,1,1,0,0,0,.57.25.94.94,0,0,0,.56-.26c.7-.55,1.9-2,1.73-3S364.69,65.05,363.82,65Z" transform="translate(0.01 -37.78)" fill="#07a193"></path><path d="M374.23,103.24c5.32,6.61,13.06,11.34,16.8,19,4.7,9.58,1.9,21.23,5.1,31.4" transform="translate(0.01 -37.78)" fill="none"></path><path d="M338.05,76.48c-3.95-7.58-6.58-15.9-9.19-24.16-1.21-3.84-3-8.32-6.23-9.29s-6,2.46-6.15,6.3,1.59,7.7,3.72,10.9c1.19,1.77,2.5,3.43,3.56,5.31a48.13,48.13,0,0,1,2.8,6.45,247.57,247.57,0,0,0,19.32,39.55,8.12,8.12,0,0,0,1.82,2.32c2.13,1.62,4.72-.12,5.85-2.5,2.32-4.86,2.12-14.79-2.24-18.53A53.3,53.3,0,0,1,338.05,76.48Z" transform="translate(0.01 -37.78)" fill="url(#linear-gradient-22)"></path><path d="M345,196.4c1.89,1.37,4.12,2.59,6.43,2.31a10.93,10.93,0,0,0,4.14-1.74l15.4-9.19c1.45-.87,3.13-2.26,2.64-3.87a3.74,3.74,0,0,0-.91-1.36c-5.47-6-3.22-10.12-11-12.45-5-1.51-19.58-2.55-24.67-3.73-6.24-1.45-6.3,1-5.53,6.95A34.21,34.21,0,0,0,345,196.4Z" transform="translate(0.01 -37.78)" fill="#606161"></path><path d="M373.41,131.31a4.44,4.44,0,0,1-.3,1.62,4.17,4.17,0,0,1-1.45,1.53,45.69,45.69,0,0,1-11.57,6.18c-1.73.63-3.6,1.21-4.77,2.63-1.7,2.06-1.33,5.16-.2,7.57a5,5,0,0,1,.67,2.06,4.9,4.9,0,0,1-.41,1.62,20.06,20.06,0,0,0-1.24,6c-.1,2-.08,4.26-1.69,5.35-.52.35-1.15.51-1.69.82a1.68,1.68,0,0,0-1,1.49,2.14,2.14,0,0,0,.29.76l7.26,13.65c1,1.94,2.33,4.09,4.49,4.53a7.42,7.42,0,0,0,4.09-.71l7-2.61c-.74-2.46-2.88-4.2-4.3-6.35-1.76-2.68-2.35-6-2.73-9.16-.49-4.22-.67-8.58.46-12.68s3.76-8,7.62-9.74c1.66-.77,3.72-1.37,4.28-3.1a5.78,5.78,0,0,0,0-2.55,23.3,23.3,0,0,1,0-6.46,4,4,0,0,0-.09-2.26,3.72,3.72,0,0,0-.94-1.08c-.56-.5-2.21-2.52-3.08-2.37S373.45,130.49,373.41,131.31Z" transform="translate(0.01 -37.78)" fill="url(#linear-gradient-23)"></path><path d="M392.56,133.2a11.14,11.14,0,0,1,2,4.77,5.06,5.06,0,0,1-1.79,4.65,6.74,6.74,0,0,1-2.84,1c-4.5.8-9.12.46-13.68.81s-9.31,1.54-12.55,4.76a2.84,2.84,0,0,1-1.83,1.14,2.24,2.24,0,0,1-1.24-.49,7.55,7.55,0,0,1-3.07-8,6.16,6.16,0,0,1,7.12-4.26,8,8,0,0,0,1.5.38,4.64,4.64,0,0,0,1.76-.31l11.24-3.55a8,8,0,0,1-4.56-5.18,24,24,0,0,1-.86-7.07c0-1.37-1.11-7.53,1.44-7.56,1.26,0,4.74,5.09,5.75,6.11C384.9,124.41,389.7,128.24,392.56,133.2Z" transform="translate(0.01 -37.78)" fill="url(#linear-gradient-24)"></path><path d="M380.75,210.22c7.81,5.07,17.17,7.82,24,14.13,2.8,2.57,5.09,5.67,7.92,8.21s6.44,4.57,10.24,4.31c6.1-.41,10.2-6.23,13.38-11.45a2.29,2.29,0,0,0,.45-2,2,2,0,0,0-1-.83c-3.9-1.74-8.44,0-12.68-.49-4.78-.6-8.65-4-12.25-7.24A380.87,380.87,0,0,0,374.11,186c-.81-.56-.87-1-1.86-1a5.65,5.65,0,0,0-3.37,1.22c-2,1.68-8.45,5-9.39,7.42-1.3,3.27,2.33,3.31,5.41,5.07S377.52,210.64,380.75,210.22Z" transform="translate(0.01 -37.78)" fill="url(#linear-gradient-25)"></path><path d="M368.13,144.22c8.8-4.6,19.68-.24,29.41-2.28,1.68-.36,3.52-.89,5-.09s1.73,3.63,0,3.89c1.26,0,1,2.16-.07,2.74s-2.53.44-3.55,1.17c-.5.36-.86.91-1.37,1.26a5,5,0,0,1-3.31.39,34.35,34.35,0,0,0-13.44,1.39c-2.93.91-3.48,2.31-5.48,4.64-2.12,2.49-1.92,9-1.07,12-.32,0-3.63-5.47-3.87-5.22-5.3,5.58,1.39,8.84,1.62,9.17,4.22,6.11-3.78,3.24-1.08,7.19,1.57,2.3-4.77-4.14-6.11-5.57-2.34-2.49-5.13-5.41-5.57-8.87C358.29,157.92,360.31,148.31,368.13,144.22Z" transform="translate(0.01 -37.78)" fill="#606161"></path><path d="M353.8,186.16a10.42,10.42,0,0,0-11.93,6.43" transform="translate(0.01 -37.78)" fill="none"></path><path d="M413.86,496.58a9.4,9.4,0,0,0,.27,2.12,5.24,5.24,0,0,0,2.51,2.76c2.85,1.62,6.35,1.67,9.57,1.05s6.3-1.84,9.48-2.63c7.67-1.91,16.36-1.48,22.62-6.31a3.7,3.7,0,0,0,1-1.05c.9-1.58-.54-3.48-2.05-4.49-9.45-6.32-23.81-.68-32.64-7.85-3.47-2.81-9.76-8.73-13.59-2.8C407.65,482.59,413.45,491.17,413.86,496.58Z" transform="translate(0.01 -37.78)" fill="#606161"></path><path d="M254.12,450.38a8.5,8.5,0,0,0-3.53,2.22,8.2,8.2,0,0,0-1.38,4.12,115.46,115.46,0,0,0-1.07,16.09,23.2,23.2,0,0,0,.51,5.58,13.17,13.17,0,0,0,7.52,8.79c2.4,1,6,.74,6.63-1.78.54-2-1.27-3.91-1.63-6-.33-1.86.55-3.7,1.4-5.39l7.55-15a13.83,13.83,0,0,0,1.55-4.14c.45-3-1.51-8.59-4.89-9.31S257.16,449.12,254.12,450.38Z" transform="translate(0.01 -37.78)" fill="#606161"></path><path d="M392.67,230a10,10,0,0,0,.76,3.07l1.47,4.07a10.78,10.78,0,0,0,1.15,2.51c1.69,2.49,5,3.18,8,3.67a2.1,2.1,0,0,0,2.56-1,8.6,8.6,0,0,0,1.82-3.07,7.66,7.66,0,0,0-.07-3.3c-.8-4.38-2-11.49-7.17-11.7C397.49,224.09,392.53,225.38,392.67,230Z" transform="translate(0.01 -37.78)" fill="url(#linear-gradient-26)"></path><path d="M347.59,201.4c-2.53,2.75-4.23,6.16-5.9,9.51-5.56,11.2-11.15,22.49-14.46,34.56-2.58,9.39-3.8,19.33-8.58,27.81-2.23,4-6.75,42.17-8.5,46.36-.79,1.9-1.22,4.38.27,5.81a5.38,5.38,0,0,0,2.8,1.18,31.42,31.42,0,0,0,11.52.05c4.27-9.61,12.89-52.34,18.49-61.24,5.13-8.13,9-17,12.9-25.77,3.13-7.1,6.29-14.33,7.13-22,.62-5.75-.19-11.92-3.12-17C356.73,194.8,351.74,196.88,347.59,201.4Z" transform="translate(0.01 -37.78)" fill="#07a193"></path><path d="M310.69,343.24a19.4,19.4,0,0,0,2.55,4,19.09,19.09,0,0,0,3.43,2.77c1.52,1.05,3.67,2.07,5.05.84.94-.83.95-2.27.85-3.52-.38-5.13-1.41-10.59-5-14.24a19.41,19.41,0,0,0-5.42-3.6c-2.68-1.27-6.89-1.29-7,2.61C305.05,335.31,309.21,340.45,310.69,343.24Z" transform="translate(0.01 -37.78)" fill="url(#linear-gradient-27)"></path><path d="M309.52,333.63a24.89,24.89,0,0,0-1.32,13.58c.28,1.53,1,3.33,2.57,3.53s2.78-1.48,3.53-2.93l4.61-8.94c2.08-4,4.22-8.52,3.13-12.93a3.36,3.36,0,0,0-.9-1.73,3.64,3.64,0,0,0-3.35-.39C312.33,325.24,311.44,328.77,309.52,333.63Z" transform="translate(0.01 -37.78)" fill="url(#linear-gradient-28)"></path><path d="M211.54,263.67C208,267.2,200.05,278,197.1,282.08c-6.67,9.17-5.41,21.67-3.83,32.9,1.22,8.64,2.53,17.49,6.65,25.19,2.28.34,4.7.66,6.8-.29,4-1.8,8.06-5.78,8.32-10.15.56-9.28-.83-30.91.27-32.36,4.47-5.88,11.87-16.5,17.23-21.59s16.07-19,17.83-26.14c2.37-9.71,4.31-33.7-15.68-15C225.9,242.78,220.15,255.16,211.54,263.67Z" transform="translate(0.01 -37.78)" fill="#07a193"></path><path d="M202.9,351.94c1.24,4.27,4.06,8.31,8.21,9.91a2,2,0,0,0,.92.17,1.86,1.86,0,0,0,1-.52,10.52,10.52,0,0,0,3.4-5.65c.94-4.22-.79-8.65-.1-12.91a11.58,11.58,0,0,0,.3-2.26,6.65,6.65,0,0,0-1.76-3.89,19.08,19.08,0,0,0-3.44-3.28,2.48,2.48,0,0,0-1.46-.62c-2.64.07-7.05,4.5-7.87,7C200.9,343.32,201.91,348.56,202.9,351.94Z" transform="translate(0.01 -37.78)" fill="url(#linear-gradient-29)"></path><path d="M372.23,168.52a3,3,0,0,0-1.64-1.33.51.51,0,0,0-.21-.06c-.19,0-.29.21-.35.39a3.35,3.35,0,0,0-.24.93,3.44,3.44,0,0,0,.58,1.75,4.78,4.78,0,0,0,1.05,1.45,3,3,0,0,0,1.43.63c1.21.21,1.44-.42.64-1.08C372.42,170.31,372.73,169.7,372.23,168.52Z" transform="translate(0.01 -37.78)" opacity="0.79" fill="url(#linear-gradient-30)"></path><path d="M350.05,198.5s15.08-10.62,21.38-13.67c0,0-12.75,8.73-11.94,10.43s.44,1.08.44,1.08S352.2,199.85,350.05,198.5Z" transform="translate(0.01 -37.78)" fill="#606161"></path><path d="M350.05,198.5s15.08-10.62,21.38-13.67c0,0-12.75,8.73-11.94,10.43s.44,1.08.44,1.08S352.2,199.85,350.05,198.5Z" transform="translate(0.01 -37.78)" fill="url(#linear-gradient-31)"></path></svg>